/* XPM */
static char *toolbar_ckpt[] = {
/* columns rows colors chars-per-pixel */
"64 64 251 2",
"   c black",
".  c #000406",
"X  c #010507",
"o  c #010608",
"O  c #020609",
"+  c #02070A",
"@  c #03080A",
"#  c #04080B",
"$  c #04090C",
"%  c #050A0D",
"&  c #050A0E",
"*  c #060B0E",
"=  c #070C0F",
"-  c #080D11",
";  c #080E12",
":  c #090E13",
">  c #0A0F13",
",  c #0A1014",
"<  c #0B1116",
"1  c #0C1217",
"2  c #0D1217",
"3  c #0D1318",
"4  c #0E1419",
"5  c #10161C",
"6  c #12181F",
"7  c #131920",
"8  c #131A20",
"9  c #141A21",
"0  c #141B22",
"q  c #161C24",
"w  c #161D24",
"e  c #171E25",
"r  c #192029",
"t  c #1A2129",
"y  c #1A222A",
"u  c #1C232C",
"i  c #202832",
"p  c #212A34",
"a  c #242D38",
"s  c #252E39",
"d  c #262F3B",
"f  c #27303B",
"g  c #2B3441",
"h  c #333D4C",
"j  c #374251",
"k  c #384352",
"l  c #384353",
"z  c #3A4555",
"x  c #3B4656",
"c  c #3B4757",
"v  c #3C4859",
"b  c #3D495A",
"n  c #3E4A5B",
"m  c #3F4B5C",
"M  c #404C5E",
"N  c #404D5E",
"B  c #414D5F",
"V  c #424E60",
"C  c #434F62",
"Z  c #435062",
"A  c #445163",
"S  c #455164",
"D  c #465366",
"F  c #465367",
"G  c #485569",
"H  c #49576B",
"J  c #4A576B",
"K  c #4E5B70",
"L  c #4F5D73",
"P  c #515F74",
"I  c #536178",
"U  c #546279",
"Y  c #56657C",
"T  c #58677F",
"R  c #54727B",
"E  c #6E706B",
"W  c #72756B",
"Q  c #75796C",
"!  c #777975",
"~  c #38678B",
"^  c #3B6C91",
"/  c #3C6D91",
"(  c #3F7296",
")  c #426C8B",
"_  c #436F8A",
"`  c #446E8D",
"'  c #46718C",
"]  c #437193",
"[  c #44789C",
"{  c #596880",
"}  c #5A6981",
"|  c #5C6B84",
" . c #5C6C85",
".. c #5E6E87",
"X. c #5F6F89",
"o. c #51748B",
"O. c #577A8D",
"+. c #527C95",
"@. c #477DA2",
"#. c #477DA3",
"$. c #61718B",
"%. c #62728C",
"&. c #62738D",
"*. c #63738E",
"=. c #64748F",
"-. c #677893",
";. c #6B7D99",
":. c #767E87",
">. c #7F817E",
",. c #5F808F",
"<. c #5A8094",
"1. c #5C8094",
"2. c #4A80A6",
"3. c #4A80A8",
"4. c #4E87B0",
"5. c #5088B1",
"6. c #5089B2",
"7. c #518BB5",
"8. c #538CB5",
"9. c #5892BD",
"0. c #64838F",
"q. c #658695",
"w. c #6E809D",
"e. c #688993",
"r. c #6D8A90",
"t. c #6E8A92",
"y. c #7A828A",
"u. c #758F94",
"i. c #798390",
"p. c #7D959B",
"a. c #7D969D",
"s. c #6497BC",
"d. c #7184A1",
"f. c #7385A3",
"g. c #7486A5",
"h. c #7588A6",
"j. c #7688A7",
"k. c #7689A8",
"l. c #778AA9",
"z. c #7896A0",
"x. c #7D91B2",
"c. c #5B96C1",
"v. c #5C97C3",
"b. c #5E99C6",
"n. c #5E9AC7",
"m. c #609CCA",
"M. c #609DCB",
"N. c #629FCE",
"B. c #63A0CE",
"V. c #67A2CE",
"C. c #63A1D0",
"Z. c #67A3D2",
"A. c #6BA5D3",
"S. c #74A8D3",
"D. c #74A8D4",
"F. c #75A9D5",
"G. c #838580",
"H. c #8E8F8D",
"J. c #808C9A",
"K. c #828F9F",
"L. c gray57",
"P. c #949691",
"I. c gray58",
"U. c #979797",
"Y. c #989898",
"T. c #9B9D99",
"R. c #8592A5",
"E. c #8291AA",
"W. c #8796AB",
"Q. c #8997A0",
"!. c #899FA6",
"~. c #889EAA",
"^. c #8B9FA8",
"/. c #8094B5",
"(. c #8094B6",
"). c #8397B9",
"_. c #8498BB",
"`. c #879CBF",
"'. c #8A9AB2",
"]. c #899CB9",
"[. c #8D9EBA",
"{. c #8EA3AE",
"}. c #8CA2B2",
"|. c #8FA5B4",
" X c #8FA5B8",
".X c #A3A4A2",
"XX c #A5A5A5",
"oX c #A9A9A9",
"OX c #ACACAC",
"+X c gray69",
"@X c #B1B1B0",
"#X c #B2B2B2",
"$X c gray72",
"%X c gray73",
"&X c #BBBBBB",
"*X c #BCBCBC",
"=X c #899EC1",
"-X c #8A9FC3",
";X c #8AA0C4",
":X c #8BA0C4",
">X c #8CA1C5",
",X c #8CA2C6",
"<X c #81ADD1",
"1X c #8FB6DB",
"2X c #90A3C2",
"3X c #98ADC3",
"4X c #C0C0C0",
"5X c #C1C1C1",
"6X c gray77",
"7X c #C5C5C4",
"8X c #C5C5C5",
"9X c gray78",
"0X c #C7C7C8",
"qX c #C6CCC0",
"wX c #C9CEC3",
"eX c #C8C8C8",
"rX c gray79",
"tX c #CACACB",
"yX c #CCCCCB",
"uX c gray80",
"iX c #CDCDCD",
"pX c #CFCFCD",
"aX c #CECECE",
"sX c #CAD0C4",
"dX c #CCD1C5",
"fX c #D2D6CC",
"gX c #D3D8CC",
"hX c #D0D0D0",
"jX c gray82",
"kX c gray84",
"lX c #D7D7D7",
"zX c #D8DAD8",
"xX c gray86",
"cX c #DFDFDF",
"vX c #E1E1E1",
"bX c #E1E2E1",
"nX c #E2E2E1",
"mX c #E2E3E1",
"MX c gray89",
"NX c gray90",
"BX c #E6E6E6",
"VX c #E7E7E7",
"CX c #E9E9E8",
"ZX c #EAEBEA",
"AX c gray92",
"SX c #ECECEC",
"DX c gray93",
"FX c #F1F1F1",
"GX c #F3F3F3",
"HX c #F6F6F6",
"JX c None",
/* pixels */
"JXJXJXJXJXJXJXJXJXJXJXJXJXJXJXJXJXJXJXJXJXJXJXJXJXJXJXJXJXJXJXJXJXJXJXJXJXJXJXJXJXJXJXJXJXJXJXJXJXJXJXJXJXJXJXJXJXJXJXJXJXJXJXJX",
"JXJXJXJXJXJXJXJXJXJXJXJXJXJXJXJXJXJXJXJXJXJXJXJXJXJXJXJXJXJXJXJXJXJXJXJXJXJXJXJXJXJXJXJXJXJXJXJXJXJXJXJXJXJXJXJXJXJXJXJXJXJXJXJX",
"JXJXJXJXJXJXJXJXJXJXJXJXJXJXJXJXJXJXJXJXJXJXJXJXJXJXJXJXJXJXJXJXJXJXJXJXJXJXJXJXJXJXJXJXJXJXJXJXJXJXJXJXJXJXJXJXJXJXJXJXJXJXJXJX",
"JXJXJXJXJXJXJXJXJXJXJXJXJXJXJXJXJXJXJXJXJXJXJXJXJXJXJXJXJXJXJXJXJXJXJXJXJXJXJXJXJXJXJXJXJXJXJXJXJXJXJXJXJXJXJXJXJXJXJXJXJXJXJXJX",
"JXJXJXJXJXJXJXJXJXJXJXJXJXJXJXJXJXJXJXJXJXJXJXJXJXJXJXJXJXJXJXJXJXJXJXJXJXJXJXJXJXJXJXJXJXJXJXJXJXJXJXJXJXJXJXJXJXJXJXJXJXJXJXJX",
"JXJXJXJXJXJXJXJXJXJXJXJXJXJXJXJXJXJXJXJXJXJXJXJXJXJXJXJXJXJXJXJXJXJXJXJXJXJXJXJXJXJXJXJXJXJXJXJXJXJXJXJXJXJXJXJXJXJXJXJXJXJXJXJX",
"JXJXJXJXJXJXJXJXJXJXJXJXJXJXJXJXJXJXJXJXJXJXJXJXJXJXJXJXJXJXJXJXJXJXJXJXJXJXJXJXJXJXJXJXJXJXJXJXJXJXJXJXJXJXJXJXJXJXJXJXJXJXJXJX",
"JXJXJXJXJXJXJXJXJXJXJXJXJXJXJXJXJXJXJXJXJXJXJXJXJXJXJXJXJXJXJXJXJXJXJXJXJXJXJXJXJXJXJXJXJXJXJXJXJXJXJXJXJXJXJXJXJXJXJXJXJXJXJXJX",
"JXJXJXJXJXJXJXJXJXJXJXJXJXJXJXJXJXJXJXJXJXJXJXJXJXJXJXJXJXJXJXJXJXJXJXJXJXJXJXJXJXJXJXJXJXJXJXJXJXJXJXJXJXJXJXJXJXJXJXJXJXJXJXJX",
"JXJXJXJXJXJXJXJXJXJXJXJXJXJXJXJXJXJXJXJXJXJXJXJXJXJXJXJXJXJXJXJXJXJXJXJXJXJXJXJXJXJXJXJXJXJXJXJXJXJXJXJXJXJXJXJXJXJXJXJXJXJXJXJX",
"JXJXJXJXJXJXJXJXJXJXJXJXJXJXJXJXJXJXJXJXJXJXJXJXJXJXJXJXJXJXJXJXJXJXJXJXJXJXJXJXJXJXJXJXJXJXJXJXJXJXJXJXJXJXJXJXJXJXJXJXJXJXJXJX",
"JXJXJXJXJXJXJXJXJXJXJXJXJXJXJXJXJXJXJXJXJXJXJXJXJXJXJXJXJXJXJXJXJXJXJXJXJXJXJXJXJXJXJXJXJXJXJXJXJXJXJXJXJXJXJXJXJXJXJXJXJXJXJXJX",
"JXJXJXJXJXJXJXJXJXJXJXJXJXJXJXJXJXJXJXJXJXJXJXJXJXJXJXJXJXJXJXJXJXJXJXJXJXJXJXJXJXJXJXJXJXJXJXJXJXJXJXJXJXJXJXJXJXJXJXJXJXJXJXJX",
"JXJXJXJXJXJXJXJXJXJXJXJXJXJXJXJXJXJXJXJXJXJXJXJXa.+.~ ~ ~ ~ ` 0. XJXJXJXJXJXJXJXJXJXJXJXJXJXJXJXJXJXJXJXJXJXJXJXJXJXJXJXJXJXJXJX",
"JXJXJXJXJXJXJXJXJXJXJXJXJXJXJXJXJXJXJXJXJXJXJX3X] s.<XS.1XF.B.<.o.~.JXJXJXJXJXJXJXJXJXJXJXJXJXJXJXJXJXJXJXJXJXJXJXJXJXJXJXJXJXJX",
"JXJXJXJXJXJXJXJXJXJXJXJXJXJXJXJXJXJXJXJXJXJX3X<.V.[ ] ^ #.N.F.A.3.) }.JXJXJXJXJXJXJXJXJXJXJXJXJXJXJXJXJXJXJXJXJXJXJXJXJXJXJXJXJX",
"JXJXJXJXJXJXJXJXJXJXJXJXJXJXJXJXJXJXJXJXJXJXt.z.q.{.JX|.' #.n.n.c.#._ JXJXJXJXJXJXJXJXJXJXJXJXJXJXJXJXJXJXJXJXJXJXJXJXJXJXJXJXJX",
"JXJXJXJXJXJXJXJXJXJXJXJXJXJXJXJXJXJXJXJXJXJXO.a.JXJXJXJX!.^ 8.9.c.N.,.u.JXJXJXJXJXJXJXJXJXJXJXJXJXJXJXJXJXJXJXJXJXJXJXJXJXJXJXJX",
"JXJXJXJXJXJXJXJXJXJXJXJXJXJXJXJXJXJXJXJXJXJXt.Q.E E E E Q ~ 9.9.9.9.e.R E E E E R.JXJXJXJXJXJXJXJXJXJXJXJXJXJXJXJXJXJXJXJXJXJXJX",
"JXJXJXJXJXJXJXJXJXJXJXJXJXJXJXJXJXJXJXJXJXJX!.W HXHXHXHXHX~ 9.9.9.9.m.~ HXHXHXHXE JXJXJXJXJXJXJXJXJXJXJXJXJXJXJXJXJXJXJXJXJXJXJX",
"JXJXJXJXJXJXJXJXJXJXJXJXJXJXJXJXJXJXJXJXJXJX[.G.SXHXZXZXSX~ 9.5.9.9.C.~ SXSXlXSXG.2XJXJXJXJXJXJXJXJXJXJXJXJXJXJXJXJXJXJXJXJXJXJX",
"JXJXJXJXJXJXJXJXJXJXJXJXJXJXJXJXJXJXJXJXJXJXW.T.SXAXHX~ ~ ~ 9.5.9.9.N.~ / ~ vXSXI.'.JXJXJXJXJXJXJXJXJXJXJXJXJXJXJXJXJXJXJXJXJXJX",
"JXJXJXJXJXJXJXJXJXJXJXJXJXJXJXJXJXJXJXJXJXJXy.yXMXZXSX~ n.N.Z.5.8.9.c.v.b.~ ZXSXfXK.JXJXJXJXJXJXJXJXJXJXJXJXJXJXJXJXJXJXJXJXJXJX",
"JXJXJXJXJXJXJXJXJXJXJXJXJXJXJXJXJXJXJXJXJXJXE BXMXSXSXgX/ n.5.8.4.5.5.v./ wXSXZXSXE JXJXJXJXJXJXJXJXJXJXJXJXJXJXJXJXJXJXJXJXJXJX",
"JXJXJXJXJXJXJXJXJXJXJXJXJXJXJXJXJXJXJXJXJX2X! SXHXAXAXAXsX~ m.3.4.5.v.~ sXZXZXHXSX>.2XJXJXJXJXJXJXJXJXJXJXJXJXJXJXJXJXJXJXJXJXJX",
"JXJXJXJXJXJXJXJXJXJXJXJXJXJXJXJXJXJXJXJXJX'.H.SXBXHXHXSXAXsX~ m.5.v.~ sXZXHXHXBXSXH.'.JXJXJXJXJXJXJXJXJXJXJXJXJXJXJXJXJXJXJXJXJX",
"JXJXJXJXJXJXJXJXJXJXJXJXJXJXJXJXJXJXJXJXJXK.$XBXVXBXBXHXHXHXfX~ n./ gXHXHXBXBXvXcX#Xp.JXJXJXJXJXJXJXJXJXJXJXJXJXJXJXJXJXJXJXJXJX",
"JXJXJXJXJXJXJXJXJXJXJXJXJXJXJXJXJXJXJXJXJX:.hXGXBXBXBXBXBXMXBXqX~ wXBXBXBXBXvXvXFXhX:.JXJXJXJXJXJXJXJXJXJXJXJXJXJXJXJXJXJXJXJXJX",
"JXJXJXJXJXJXJXJXJXJXJXJXJXJXJXJXJXJXJXJXJXE HXHXHXHXHXHXHXHXHXHXHXHXHXHXHXHXHXHXHXHXE JXJXJXJXJXJXJXJXJXJXJXJXJXJXJXJXJXJXJXJXJX",
"JXJXJXJXJXJXJXJXJXJXJXJXJXJXJXJXJXJXJXJXJXE vXaXaXaXaXaXaXaXaXaXtXaXaXaXaXtXtXaXaXvXE JXJXJXJXJXJXJXJXJXJXJXJXJXJXJXJXJXJXJXJXJX",
"JXJXJXJXJXJXJXJXJXJXJXJXJXJXJXJXJXJXJXJXJXE vXeXxXL.U..X+X+X*X*X7XhX*XkX6XkX6XkX*XvXE JXJXJXJXJXJXJXJXJXJXJXJXJXJXJXJXJXJXJXJXJX",
"JXJXJXJXJXJXJXJXJXJXJXJXJXJXJXJXJXJXJXJXJXE vXeXkXI.U.XXoXOX$X6X7XhX6XkX*XkX*XkX6XvXE JXJXJXJXJXJXJXJXJXJXJXJXJXJXJXJXJXJXJXJXJX",
"JXJXJXJXJXJXJXJXJXJXJXJXJXJXJXJXJXJXJXJXJXE vXeXaX7X6X7X6X*X6X9X9XhX6XkX*XlX6XkX6XcXE JXJXJXJXJXJXJXJXJXJXJXJXJXJXJXJXJXJXJXJXJX",
"JXJXJXJXJXJXJXJXJXJXJXJXJXJXJXJXJXJXJXJXJXE tXvXvXvXcXvXvXvXcXvXvXvXvXvXvXvXvXcXvX0XE JXJXJXJXJXJXJXJXJXJXJXJXJXJXJXJXJXJXJXJXJX",
"JXJXJXJXJXJXJXJXJXJXJXJXJXJXJXJXJXJXJXJXJXE.E E E E E E E E E E E E E E E E E E E E ].JXJXJXJXJXJXJXJXJXJXJXJXJXJXJXJXJXJXJXJXJX",
"JXJXJXJXJXJXJXJXJXJXJXJXJXJXJXJXJXJXJXJXJXJXJXJXJXJXJXJXJXJXJXJXJXJXJXJXJXJXJXJXJXJXJXJXJXJXJXJXJXJXJXJXJXJXJXJXJXJXJXJXJXJXJXJX",
"JXJXJXJXJXJXJXJXJXJXJXJXJXJXJXJXJXJXJXJXJXJXJXJXJXJXJXJXJXJXJXJXJXJXJXJXJXJXJXJXJXJXJXJXJXJXJXJXJXJXJXJXJXJXJXJXJXJXJXJXJXJXJXJX",
"JXJXJXJXJXJXJXJXJXJXJXJXJXJXJXJXJXJXJXJXJXJXJXJXJXJXJXJXJXJXJXJXJXJXJXJXJXJXJXJXJXJXJXJXJXJXJXJXJXJXJXJXJXJXJXJXJXJXJXJXJXJXJXJX",
"JXJXJXJXJXJXJXJXJXJXJXJXJXJXJXJXJXJXJXJXJXJXJXJXJXJXJXJXJXJXJXJXJXJXJXJXJXJXJXJXJXJXJXJXJXJXJXJXJXJXJXJXJXJXJXJXJXJXJXJXJXJXJXJX",
"JXJXJXJXJXJXJXJXJXJXJXJXJXJXJXJXJXJXJXJXJXJXJXJXJXJXJXJXJXJXJXJXJXJXJXJXJXJXJXJXJXJXJXJXJXJXJXJXJXJXJXJXJXJXJXJXJXJXJXJXJXJXJXJX",
"JXJXJXJXJXJXJXJXJXJXJXJXJXJXJXJXJXJXJXJXJXJXJXJXJXJXJXJXJXJXJXJXJXJXJXJXJXJXJXJXJXJXJXJXJXJXJXJXJXJXJXJXJXJXJXJXJXJXJXJXJXJXJXJX",
"JXJXJXJXJXJXJXJXJXJXJXJXJXJXJXJXJXJXJXJXJXJXJXJXJXJXJXJXJXJXJXJXJXJXJXJXJXJXJXJXJXJXJXJXJXJXJXJXJXJXJXJXJXJXJXJXJXJXJXJXJXJXJXJX",
"JXJXJXJXJXJXJXJXJXJXJXJXJXJXJXJXJXJXJXJXJXJXJXJXJXJXJXJXJXJXJXJXJXJXJXJXJXJXJXJXJXJXJXJXJXJXJXJXJXJXJXJXJXJXJXJXJXJXJXJXJXJXJXJX",
"JXJXJXJXJXJXJXJXJXJXJXJXJXJXJXJXJXJXJXJXJXJXJXJXJXJXJXJXJXJXJXJXJXJXJXJXJXJXJXJXJXJXJXJXJXJXJXJXJXJXJXJXJXJXJXJXJXJXJXJXJXJXJXJX",
"JXJXJXJXJXJXJXJXJXJXJXJXJXJXJXJXJXJXJXJXJXJXJXJXJXJXJXJXJXJXJXJXJXJXJXJXJXJXJXJXJXJXJXJXJXJXJXJXJXJXJXJXJXJXJXJXJXJXJXJXJXJXJXJX",
"JXJXJXJXJXJXJXJXJXJXJXJXJXJXJXJXJXJXJXJXJXJXJXJXJXJXJXJXJXJXJXJXJXJXJXJXJXJXJXJXJXJXJXJXJXJXJXJXJXJXJXJXJXJXJXJXJXJXJXJXJXJXJXJX",
"JXJXJXJXJXJXJXJXJXJXJXJXJXJXJXJXJXJXJXJXJXJXJXJXJXJXJXJXJXJXJXJXJXJXJXJXJXJXJXJXJXJXJXJXJXJXJXJXJXJXJXJXJXJXJXJXJXJXJXJXJXJXJXJX",
"JXJXJXJXJXJXJXJXJXJXJXJXJXJXJXJXJXJXJXJXJXJXJXJXJXJXJXJXJXJXJXJXJXJXJXJXJXJXJXJXJXJXJXJXJXJXJXJXJXJXJXJXJXJXJXJXJXJXJXJXJXJXJXJX",
"JXJXJXJXJXJXJXJXJXJXJXJXJXJXJXJXJXJXJXJXJXJXJXJXJXJXJXJXJXJXJXJXJXJXJXJXJXJXJXJXJXJXJXJXJXJXJXJXJXJXJXJXJXJXJXJXJXJXJXJXJXJXJXJX",
"JXJXJXJXJXJXJXJXJXJXJXJXJXJXJXJXJXJXJXJXJXJXJXJXJXJXJXJXJXJXJXJXJXJXJXJXJXJXJXJXJXJXJXJXJXJXJXJXJXJXJXJXJXJXJXJXJXJXJXJXJXJXJXJX",
"JXJX,Xv 3 O 6 Z JX. . JXJXJXJXJXJXJXJXJXJXJXJXJXJXJXJXJXJX. . JXJXJXJXJXJXJXJXJXJXJXJXJXJXJXJXJXJX. . JXJXJXJXJXJXJXJXJXJXJXJXJX",
"JXJXe 6 x.JXY . g . . JXJXJXJXJXJXJXJXJXJXJXJXJXJXJXJXJXJX. . JXJXJXJXJXJXJXJXJXJXJXJXJXJXJXJXJXJX. . JXJXJXJXJXJXJXJXf.s JXJXJX",
"JXG . &.JXJXJXJXJX. . JXJXJXJXJXJXJXJXJXJXJXJXJXJXJXJXJXJX. . JXJXJXJXJXJXJXJXJXJXJXJXJXJXJXJXJXJXJXJXJXJXJXJXJXJXJXJX. . JXJXJX",
"JXr . =XJXJXJXJXJX. . &., 5 ;.JXJXh * ; N JXJXJXN , * d ).. . JX} . F . . =., p :XJXJXA , ; A JXJX. . JX. . w.5 3 -.. . . . JXJX",
"JX= . JXJXJXJXJXJX. . m l.. e JXn . | $.. G JXG .  .l.. i . . g.@ z JX. . n  .. l JXK . } T . K JX. . JX. . L f.. 6 JX. . JXJXJX",
"JX# . JXJXJXJXJXJX. . =XJX. O JX4 . ,XJX. 0 JX5 . JXJXJXJX. . 2 r JXJX. . JXJX. 2 JX8 . JX,X. 6 JX. . JX. . ,XJX. . JX. . JXJXJX",
"JX0 . =XJXJXJXJXJX. . JXJX. . JXO . . . . O JX. . JXJXJXJX. . . . j.JX. . JXJX. O JXO . JXJX. O JX. . JX. . JXJX. . JX. . JXJXJX",
"JXF . &.JXJXJXJXJX. . JXJX. . JX, . JXJXJXJXJX5 . JXJXJXJX. . } O r JX. . :XJX. 3 JX8 . JX,X. 8 JX. . JX. . JXJX. . JX. . JXJXJX",
"JXJX8 0 (.JXU . g . . JXJX. . JXl . } j.. u JXF . | j.. i . . JXZ O I . . N  .. z JXG . } } . P JX. . JX. . JXJX. . JX; . JXJXJX",
"JXJX=Xl , . 8 Z JX. . JXJX. . JXJXz ; # f (.JXJXn ; * f _.. . JXJX4 = . . } ; s ,XJXJXV , ; F JXJX. . JX. . JXJX. . JX&.* s JXJX",
"JXJXJXJXJXJXJXJXJXJXJXJXJXJXJXJXJXJXJXJXJXJXJXJXJXJXJXJXJXJXJXJXJXJXJX. . JXJXJXJXJXJXJXJXJXJXJXJXJXJXJXJXJXJXJXJXJXJXJXJXJXJXJX",
"JXJXJXJXJXJXJXJXJXJXJXJXJXJXJXJXJXJXJXJXJXJXJXJXJXJXJXJXJXJXJXJXJXJXJX. . JXJXJXJXJXJXJXJXJXJXJXJXJXJXJXJXJXJXJXJXJXJXJXJXJXJXJX",
"JXJXJXJXJXJXJXJXJXJXJXJXJXJXJXJXJXJXJXJXJXJXJXJXJXJXJXJXJXJXJXJXJXJXJX. . JXJXJXJXJXJXJXJXJXJXJXJXJXJXJXJXJXJXJXJXJXJXJXJXJXJXJX",
"JXJXJXJXJXJXJXJXJXJXJXJXJXJXJXJXJXJXJXJXJXJXJXJXJXJXJXJXJXJXJXJXJXJXJXJXJXJXJXJXJXJXJXJXJXJXJXJXJXJXJXJXJXJXJXJXJXJXJXJXJXJXJXJX"
};
