/* XPM */
static char *toolbar_cplx[] = {
/* columns rows colors chars-per-pixel */
"64 64 86 1",
"  c #000000",
". c #010609",
"X c #04090C",
"o c #070C10",
"O c #080D12",
"+ c #0B1015",
"@ c #0D1318",
"# c #10161C",
"$ c #151C23",
"% c #181F27",
"& c #1B222B",
"* c #1E2630",
"= c #222A34",
"- c #252E39",
"; c #29323F",
": c #2B3542",
"> c #2F3846",
", c #364151",
"< c #394555",
"1 c #3C4758",
"2 c #3D495A",
"3 c #424E60",
"4 c #455164",
"5 c #49566A",
"6 c #54637A",
"7 c #58677E",
"8 c #5B6B83",
"9 c #5F6F89",
"0 c #63738D",
"q c #657691",
"w c #677893",
"e c #687995",
"r c #6E809C",
"t c #7F8796",
"y c #7D889D",
"u c #7284A2",
"i c #778AA9",
"p c #798CAC",
"a c #7E92B2",
"s c #818282",
"d c #848689",
"f c #86888B",
"g c #8A8B8C",
"h c #828790",
"j c #878B93",
"k c #858D9B",
"l c #898D94",
"z c #888F9A",
"x c #8F9092",
"c c #8B919D",
"v c #929394",
"b c #97989A",
"n c #999A9B",
"m c #838EA2",
"M c #8693AB",
"N c #8C95A4",
"B c #8996AB",
"V c #8D9AAF",
"C c #8195B7",
"Z c #8296B8",
"A c #8499BB",
"S c #8E9BB3",
"D c #8F9EB8",
"F c #9D9EA0",
"G c #909EB6",
"H c #909FB8",
"J c #9FA0A0",
"K c #90A1BB",
"L c #A2A3A4",
"P c #A7A8A9",
"I c #AAABAB",
"U c #B3B3B4",
"Y c #B7B7B8",
"T c #BBBBBB",
"R c #899EC2",
"E c #8BA0C4",
"W c #93A5C5",
"Q c #C3C3C3",
"! c #CBCBCB",
"~ c #D3D3D3",
"^ c #DBDBDB",
"/ c #E3E3E3",
"( c #EBEBEB",
") c #F3F3F3",
"_ c #F8F8F8",
"` c None",
/* pixels */
"````````````````````````````````````````````````````````````````",
"````````````````````````````````````````````````````````````````",
"````````````````````````````````````````````````````````````````",
"````````````````````````````````````````````````````````````````",
"````````````````````````````````````````````````````````````````",
"````````````````````````````````````````````````````````````````",
"````````````````````````````````````````````````````````````````",
"````````````````````````````````````````````````````````````````",
"`````````````````````````````dsdsj``````````````````````````````",
"`````````````````````````````s/(/s``````````````````````````````",
"`````````````````````````````f/~(d``````````````````````````````",
"`````````````````````GdW````Kn^~(vW````GsG``````````````````````",
"````````````````````VgUdS``VsU^^/IdV``cv~gV`````````````````````",
"```````````````````Ss^^^vsdL!(///)~PssY)_(sG````````````````````",
"```````````````````Sg(!!/Q^(////(()_(/_)()gG````````````````````",
"````````````````````lU^!~^^^^//(()_))))()Ic`````````````````````",
"`````````````````````d~~~~^///(())_)))()!f``````````````````````",
"`````````````````````zJ(^^//(()))))(((()vN``````````````````````",
"`````````````````````d^/^//()__(__)(((((/d``````````````````````",
"````````````````````GJ(^/(())PsfsP)(((//)nG`````````````````````",
"```````````````````Ks!//(()_vN```Nv)(////~slNG``````````````````",
"````````````````fsgJY)((()_TN`````NU)//^^(/!Und`````````````````",
"````````````````s/(((((())_g```````f)/^^~!!~~^d`````````````````",
"````````````````s)///()__)_s```````s)^~~!!!!~^s`````````````````",
"````````````````s!/)__)_))_gW`````Wl(~~!Q/^QULs`````````````````",
"````````````````Vcfsg)))())!l`````jQ/~!!!^slNSW`````````````````",
"````````````````````j!_((((_PjK`KjJ(~!QQ!Tz`````````````````````",
"````````````````````GJ_)((/(_QngbQ(~QQQT/vH`````````````````````",
"`````````````````````d/(((///((((^!QQQTQ~s``````````````````````",
"`````````````````````zJ_////^^^~!!!QTTYTQs``````````````````````",
"`````````````````````d^(///^^~~!!QQTTYUI!Il`````````````````````",
"````````````````````lQ(/((/^~~!QQTTYQ^~YU^vS````````````````````",
"```````````````````zv)/(/U^(^~QQTQ!^!gn^Q~Qs````````````````````",
"```````````````````Kd/)!fdsbT^/TT/Uvsmjg~/sJ````````````````````",
"````````````````````Vdvf```kjs/UQTsy```Md7B`````````````````````",
"`````````````````````Sk``````s!UQL``````````````````````````````",
"`````````````````````````````fQQ~v``````````````````````````````",
"`````````````````````````````jU/^s``````````````````````````````",
"`````````````````````````````V7sss``````````````````````````````",
"````````````````````````````````````````````````````````````````",
"````````````````````````````````````````````````````````````````",
"````````````````````````````````````````````````````````````````",
"````````````````````````````````````````````````````````````````",
"````````````````````````````````````````````````````````````````",
"````````````````````````````````````````````````````````````````",
"````````````````````````````````````````````````````````````````",
"````````````````````````````````````````````````````````````````",
"````````````````````````````````````````````````````````````````",
"````````````````````````````````````````````````````````````````",
"````````````````````````````````````````````````````````````````",
"````E2+.&0`````````````````````````````````..```````````````````",
"````$ ....0```````````````````````````````` .```````````````````",
"```5.=A`;.%```e%.$q```. 6O$a2.$u``..6+O7```. ```0$.&e``p.=``&.p`",
"```& p``C-u``e.....e``.....$ . &``. ....0``..``w . ..u``3.w9.5``",
"```X.````````- <`<.-`` .8p..8p..`` .<`<.&``..``=.0`q.>```@%#%```",
"```X.````````X.``` X``..``. `` .`` .A`C.X`` .``X. ...+```w..u```",
"```%.p``C-u``o.``a.X``. ``..``..``. a`Z.X``. ``X.. ...```6..6```",
"```4.=AR;.&``=.<`,.=``. ``  ``  ``. ,`<.=``..``& 0``````Ro+XoE``",
"````#... .w``e. ...r``..`` .`` .``..... w``..``0.....:``<.86 <``",
"````A,O.&w````0&.&e```. ``..``..``. 8+@8```. ```8$.O<``p.&``&.p`",
"`````````````````````````````````` .````````````````````````````",
"``````````````````````````````````. ````````````````````````````",
"``````````````````````````````````..````````````````````````````",
"````````````````````````````````````````````````````````````````"
};
