/* XPM */
static char *toolbar_pe[] = {
/* columns rows colors chars-per-pixel */
"64 64 102 2",
"   c black",
".  c #000406",
"X  c #010507",
"o  c #010608",
"O  c #020609",
"+  c #02070A",
"@  c #03080A",
"#  c #04080B",
"$  c #050A0D",
"%  c #050A0E",
"&  c #060B0E",
"*  c #070C0F",
"=  c #080D11",
"-  c #080E12",
";  c #090E13",
":  c #0A0F13",
">  c #0A1014",
",  c #0B1116",
"<  c #0C1217",
"1  c #0D1318",
"2  c #0E1419",
"3  c #0E141A",
"4  c #10161C",
"5  c #11181E",
"6  c #12181F",
"7  c #131920",
"8  c #131A20",
"9  c #141A21",
"0  c #192028",
"q  c #1A222A",
"w  c #1C232C",
"e  c #1D252E",
"r  c #1E262F",
"t  c #202832",
"y  c #212933",
"u  c #252E39",
"i  c #262E3A",
"p  c #27303B",
"a  c #2A3440",
"s  c #2B3441",
"d  c #2C3643",
"f  c #2D3643",
"g  c #303A48",
"h  c #333D4C",
"j  c #333E4C",
"k  c #343F4D",
"l  c #364150",
"z  c #374251",
"x  c #3A4555",
"c  c #3B4656",
"v  c #3B4757",
"b  c #3D495A",
"n  c #3F4B5C",
"m  c #3F4B5D",
"M  c #404D5E",
"N  c #424E60",
"B  c #445163",
"V  c #455164",
"C  c #465367",
"Z  c #485569",
"A  c #49576B",
"S  c #4A576B",
"D  c #4B586C",
"F  c #4B596D",
"G  c #4D5B70",
"H  c #4E5B70",
"J  c #4F5D73",
"K  c #515F74",
"L  c #546279",
"P  c #58677F",
"I  c #2F5E9A",
"U  c #3162A0",
"Y  c #3364A4",
"T  c #596880",
"R  c #5A6981",
"E  c #5C6B84",
"W  c #5F6F89",
"Q  c #62728C",
"!  c #63738E",
"~  c #64748F",
"^  c #677893",
"/  c #6C7E9A",
"(  c #6D7F9C",
")  c #6E809D",
"_  c #7184A1",
"`  c #7385A3",
"'  c #7386A4",
"]  c #7688A7",
"[  c #778AA9",
"{  c #788BAA",
"}  c #7A8DAD",
"|  c #7A8EAE",
" . c #8094B6",
".. c #8195B7",
"X. c #869BBE",
"o. c #879CBF",
"O. c #8AA0C4",
"+. c #8BA0C4",
"@. c #8CA2C6",
"#. c #9DBADE",
"$. c #BCD0EA",
"%. c None",
/* pixels */
"%.%.%.%.%.%.%.%.%.%.%.%.%.%.%.%.%.%.%.%.%.%.%.%.%.%.%.%.%.%.%.%.%.%.%.%.%.%.%.%.%.%.%.%.%.%.%.%.%.%.%.%.%.%.%.%.%.%.%.%.%.%.%.%.",
"%.%.%.%.%.%.%.%.%.%.%.%.%.%.%.%.%.%.%.%.%.%.%.%.%.%.%.%.%.%.%.%.%.%.%.%.%.%.%.%.%.%.%.%.%.%.%.%.%.%.%.%.%.%.%.%.%.%.%.%.%.%.%.%.",
"%.%.%.%.%.%.%.%.%.%.%.%.%.%.%.%.%.%.%.%.%.%.%.%.%.%.%.%.%.%.%.%.%.%.%.%.%.%.%.%.%.%.%.%.%.%.%.%.%.%.%.%.%.%.%.%.%.%.%.%.%.%.%.%.",
"%.%.%.%.%.%.%.%.%.%.%.%.%.%.%.%.%.%.%.%.%.%.%.%.%.%.%.%.%.%.%.%.%.%.%.%.%.%.%.%.%.%.%.%.%.%.%.%.%.%.%.%.%.%.%.%.%.%.%.%.%.%.%.%.",
"%.%.%.%.%.%.%.%.%.%.%.%.%.%.%.%.%.%.%.%.%.%.%.%.%.%.%.%.%.%.%.%.%.%.%.%.%.%.%.%.%.%.%.%.%.%.%.%.%.%.%.%.%.%.%.%.%.%.%.%.%.%.%.%.",
"%.%.%.%.%.%.%.%.%.%.%.%.%.%.%.%.%.%.%.%.%.%.%.%.%.%.%.%.%.%.%.%.%.%.%.%.%.%.%.%.%.%.%.%.%.%.%.%.%.%.%.%.%.%.%.%.%.%.%.%.%.%.%.%.",
"%.%.%.%.%.%.%.%.%.%.%.%.%.%.%.%.%.%.%.%.%.%.%.%.%.%.%.%.%.%.%.%.%.%.%.%.%.%.%.%.%.%.%.%.%.%.%.%.%.%.%.%.%.%.%.%.%.%.%.%.%.%.%.%.",
"%.%.%.%.%.%.%.%.%.%.%.%.%.%.%.%.%.%.%.%.%.%.%.%.%.%.%.%.%.%.%.%.%.%.%.%.%.%.%.%.%.%.%.%.%.%.%.%.%.%.%.%.%.%.%.%.%.%.%.%.%.%.%.%.",
"%.%.%.%.%.%.%.%.%.%.%.%.%.%.%.%.%.%.%.%.%.%.%.%.%.%.%.%.%.%.%.%.%.%.%.%.%.%.%.%.%.%.%.%.%.%.%.%.%.%.%.%.%.%.%.%.%.%.%.%.%.%.%.%.",
"%.%.%.%.%.%.%.%.%.%.%.%.%.%.%.%.%.%.%.%.%.%.%.%.%.%.%.%.%.%.%.%.%.%.%.%.%.%.%.%.%.%.%.%.%.%.%.%.%.%.%.%.%.%.%.%.%.%.%.%.%.%.%.%.",
"%.%.%.%.%.%.%.%.%.%.%.%.%.%.%.%.%.%.%.%.%.%.%.%.%.%.%.%.%.%.%.%.%.%.%.%.%.%.Y %.%.%.%.%.%.%.%.%.%.%.%.%.%.%.%.%.%.%.%.%.%.%.%.%.",
"%.%.%.%.%.%.%.%.%.%.%.%.%.%.%.%.%.%.%.%.%.%.%.%.%.%.%.%.%.%.%.%.%.%.%.%.%.Y #.U %.%.%.%.%.%.%.%.%.%.%.%.%.%.%.%.%.%.%.%.%.%.%.%.",
"%.%.%.%.%.%.%.%.%.%.%.%.%.%.%.%.%.%.%.%.%.%.%.%.%.%.%.%.%.%.%.%.%.%.%.%.Y #.$.I I %.%.%.%.%.%.%.%.%.%.%.%.%.%.%.%.%.%.%.%.%.%.%.",
"%.%.%.%.%.%.%.%.%.%.%.%.%.%.%.%.%.%.%.%.%.%.%.%.%.%.%.%.%.%.%.%.%.%.%.Y #.$.I I %.%.%.%.%.%.%.%.%.%.%.%.%.%.%.%.%.%.%.%.%.%.%.%.",
"%.%.%.%.%.%.%.%.%.%.%.%.%.%.%.%.%.%.%.%.%.%.%.%.%.%.%.%.%.%.%.%.%.%.Y #.$.I I %.%.%.%.%.%.%.%.%.%.%.%.%.%.%.%.%.%.%.%.%.%.%.%.%.",
"%.%.%.%.%.%.%.%.%.%.%.%.%.%.%.%.%.%.%.%.%.%.%.%.%.%.%.%.%.%.%.%.%.Y #.$.I I %.%.%.%.%.Y %.%.%.%.%.%.%.%.%.%.%.%.%.%.%.%.%.%.%.%.",
"%.%.%.%.%.%.%.%.%.%.%.%.%.%.%.%.%.%.%.%.%.%.%.%.%.%.%.%.%.%.%.%.Y #.$.I I %.%.%.%.%.Y #.U %.%.%.%.%.%.%.%.%.%.%.%.%.%.%.%.%.%.%.",
"%.%.%.%.%.%.%.%.%.%.%.%.%.%.%.%.%.%.%.%.%.%.%.%.%.%.%.%.%.%.%.Y #.$.I I %.%.%.%.%.Y #.$.I I %.%.%.%.%.%.%.%.%.%.%.%.%.%.%.%.%.%.",
"%.%.%.%.%.%.%.%.%.%.%.%.%.%.%.%.%.%.%.%.%.%.%.%.%.%.%.%.%.%.Y #.$.I I %.%.%.%.%.Y #.$.I I %.%.%.%.%.%.%.%.%.%.%.%.%.%.%.%.%.%.%.",
"%.%.%.%.%.%.%.%.%.%.%.%.%.%.%.%.%.%.%.%.%.%.%.%.%.%.%.%.%.Y #.$.I I %.%.%.%.%.Y #.$.I I %.%.%.%.%.%.%.%.%.%.%.%.%.%.%.%.%.%.%.%.",
"%.%.%.%.%.%.%.%.%.%.%.%.%.%.%.%.%.%.%.%.%.%.%.%.%.%.%.%.Y #.$.I I %.%.%.%.%.Y #.$.I I %.%.%.%.%.%.%.%.%.%.%.%.%.%.%.%.%.%.%.%.%.",
"%.%.%.%.%.%.%.%.%.%.%.%.%.%.%.%.%.%.%.%.%.%.%.%.%.%.%.Y #.$.I I %.%.%.%.%.Y #.$.I I %.%.%.%.%.%.%.%.%.%.%.%.%.%.%.%.%.%.%.%.%.%.",
"%.%.%.%.%.%.%.%.%.%.%.%.%.%.%.%.%.%.%.%.%.%.%.%.%.%.Y #.$.I I %.%.%.%.%.Y #.$.I I %.%.%.%.%.%.%.%.%.%.%.%.%.%.%.%.%.%.%.%.%.%.%.",
"%.%.%.%.%.%.%.%.%.%.%.%.%.%.%.%.%.%.%.%.%.%.%.%.%.Y #.$.I I %.%.%.%.%.Y #.$.I I %.%.%.%.%.%.%.%.%.%.%.%.%.%.%.%.%.%.%.%.%.%.%.%.",
"%.%.%.%.%.%.%.%.%.%.%.%.%.%.%.%.%.%.%.%.%.%.%.%.Y #.$.I I %.%.%.%.%.Y #.$.I I %.%.%.%.%.%.%.%.%.%.%.%.%.%.%.%.%.%.%.%.%.%.%.%.%.",
"%.%.%.%.%.%.%.%.%.%.%.%.%.%.%.%.%.%.%.%.%.%.%.Y #.$.I I %.%.%.%.%.Y #.$.I I %.%.%.%.%.%.%.%.%.%.%.%.%.%.%.%.%.%.%.%.%.%.%.%.%.%.",
"%.%.%.%.%.%.%.%.%.%.%.%.%.%.%.%.%.%.%.%.%.%.Y #.$.I I %.%.%.%.%.Y #.$.I I %.%.%.%.%.%.%.%.%.%.%.%.%.%.%.%.%.%.%.%.%.%.%.%.%.%.%.",
"%.%.%.%.%.%.%.%.%.%.%.%.%.%.%.%.%.%.%.%.%.Y #.$.I I %.%.%.%.%.Y #.$.I I %.%.%.%.%.%.%.%.%.%.%.%.%.%.%.%.%.%.%.%.%.%.%.%.%.%.%.%.",
"%.%.%.%.%.%.%.%.%.%.%.%.%.%.%.%.%.%.%.%.Y #.$.I I %.%.%.%.%.Y #.$.I I %.%.%.%.%.%.%.%.%.%.%.%.%.%.%.%.%.%.%.%.%.%.%.%.%.%.%.%.%.",
"%.%.%.%.%.%.%.%.%.%.%.%.%.%.%.%.%.%.%.Y #.$.I I %.%.%.%.%.Y #.$.I I %.%.%.%.%.%.%.%.%.%.%.%.%.%.%.%.%.%.%.%.%.%.%.%.%.%.%.%.%.%.",
"%.%.%.%.%.%.%.%.%.%.%.%.%.%.%.%.%.%.%.%.U I I %.%.%.%.%.Y #.$.I I %.%.%.%.%.%.%.%.%.%.%.%.%.%.%.%.%.%.%.%.%.%.%.%.%.%.%.%.%.%.%.",
"%.%.%.%.%.%.%.%.%.%.%.%.%.%.%.%.%.%.%.%.%.I %.%.%.%.%.Y #.$.I I %.%.%.%.%.%.%.%.%.%.%.%.%.%.%.%.%.%.%.%.%.%.%.%.%.%.%.%.%.%.%.%.",
"%.%.%.%.%.%.%.%.%.%.%.%.%.%.%.%.%.%.%.%.%.%.%.%.%.%.Y #.$.I I %.%.%.%.%.%.%.%.%.%.%.%.%.%.%.%.%.%.%.%.%.%.%.%.%.%.%.%.%.%.%.%.%.",
"%.%.%.%.%.%.%.%.%.%.%.%.%.%.%.%.%.%.%.%.%.%.%.%.%.Y #.$.I I %.%.%.%.%.%.%.%.%.%.%.%.%.%.%.%.%.%.%.%.%.%.%.%.%.%.%.%.%.%.%.%.%.%.",
"%.%.%.%.%.%.%.%.%.%.%.%.%.%.%.%.%.%.%.%.%.%.%.%.Y #.$.I I %.%.%.%.%.%.%.%.%.%.%.%.%.%.%.%.%.%.%.%.%.%.%.%.%.%.%.%.%.%.%.%.%.%.%.",
"%.%.%.%.%.%.%.%.%.%.%.%.%.%.%.%.%.%.%.%.%.%.%.%.%.U I I %.%.%.%.%.%.%.%.%.%.%.%.%.%.%.%.%.%.%.%.%.%.%.%.%.%.%.%.%.%.%.%.%.%.%.%.",
"%.%.%.%.%.%.%.%.%.%.%.%.%.%.%.%.%.%.%.%.%.%.%.%.%.%.I %.%.%.%.%.%.%.%.%.%.%.%.%.%.%.%.%.%.%.%.%.%.%.%.%.%.%.%.%.%.%.%.%.%.%.%.%.",
"%.%.%.%.%.%.%.%.%.%.%.%.%.%.%.%.%.%.%.%.%.%.%.%.%.%.%.%.%.%.%.%.%.%.%.%.%.%.%.%.%.%.%.%.%.%.%.%.%.%.%.%.%.%.%.%.%.%.%.%.%.%.%.%.",
"%.%.%.%.%.%.%.%.%.%.%.%.%.%.%.%.%.%.%.%.%.%.%.%.%.%.%.%.%.%.%.%.%.%.%.%.%.%.%.%.%.%.%.%.%.%.%.%.%.%.%.%.%.%.%.%.%.%.%.%.%.%.%.%.",
"%.%.%.%.%.%.%.%.%.%.%.%.%.%.%.%.%.%.%.%.%.%.%.%.%.%.%.%.%.%.%.%.%.%.%.%.%.%.%.%.%.%.%.%.%.%.%.%.%.%.%.%.%.%.%.%.%.%.%.%.%.%.%.%.",
"%.%.%.%.%.%.%.%.%.%.%.%.%.%.%.. . . . : f +.%.%.%.%.%.%.%.%.%.%.%.%.%.%.%.%.. . %.. . %.%.%.%.%.%.. . %.%.%.%.%.%.%.%.%.%.%.%.%.",
"%.%.%.%.%.%.%.%.%.%.%.%.%.%.%.. . %.%.F . g %.%.%.%.%.%.%.%.%.%.%.%.%.%.%.%.. . %.. . %.%.%.%.%.%.. . %.%.%.%.%.%.%.%.%.%.%.%.%.",
"%.%.%.%.%.%.%.%.%.%.%.%.%.%.%.. . %.%.%.. $ %.%.%.%.%.%.%.%.%.%.%.%.%.%.%.%.. . %.. . %.%.%.%.%.%.. . %.%.%.%.%.%.%.%.%.%.%.%.%.",
"%.%.%.%.%.%.%.%.%.%.%.%.%.%.%.. . %.%.%.. : ..i $ + q ) . . f t ..i $ + q ) . . %.. . %.k $ : M %.. . %.%.%.%.%.%.%.%.%.%.%.%.%.",
"%.%.%.%.%.%.%.%.%.%.%.%.%.%.%.. . %.%.F . l r ! %.} . 4 . . ^ +.r ! %.} . 4 . . %.. . b . E W . S . . %.%.%.%.%.%.%.%.%.%.%.%.%.",
"%.%.%.%.%.%.%.%.%.%.%.%.%.%.%.. . . . : k %.%.[ B q . . . . %.%.%.[ B q . . . . %.. . < . @.%.. 9 . . %.%.%.%.%.%.%.%.%.%.%.%.%.",
"%.%.%.%.%.%.%.%.%.%.%.%.%.%.%.. . %.%.%.%.%.L . s [ . . . . %.%.L . s ] . . . . %.. . + . . . . + . . %.%.%.%.%.%.%.%.%.%.%.%.%.",
"%.%.%.%.%.%.%.%.%.%.%.%.%.%.%.. . %.%.%.%.%.$ . %.%.. . . . %.%.* . %.%.. . . . %.. . , . %.%.%.%.. . %.%.%.%.%.%.%.%.%.%.%.%.%.",
"%.%.%.%.%.%.%.%.%.%.%.%.%.%.%.. . %.%.%.%.%.3 . ' L . . . . %.%.3 . ' L . . . . %.. . z . P { . w . . %.%.%.%.%.%.%.%.%.%.%.%.%.",
"%.%.%.%.%.%.%.%.%.%.%.%.%.%.%.. . %.%.%.%.%.! , > x . . . . %.%.~ : < v . . . . %.. . %.c : # p ... . %.%.%.%.%.%.%.%.%.%.%.%.%.",
"%.%.%.%.%.%.%.%.%.%.%.%.%.%.%.%.%.%.%.%.%.%.%.%.%.%.%.%.%.%.%.%.%.%.%.%.%.%.%.%.%.%.%.%.%.%.%.%.%.%.%.%.%.%.%.%.%.%.%.%.%.%.%.%.",
"%.%.. . . . . . %.%.%.%.%.%.%.%.%.%.%.%.. . %.%.%.%.%.%.%.%.%.%.%.%.%.%.%.%.%.%.%.%.%.%.%.%.%.%.%.%.%.%.%.%.%.%.%.%.%.%.%.%.%.%.",
"%.%.. . %.%.%.%.%.%.%.%.%.%.%.%.%.%.%.%.. . %.%.%.%.%.%.%.%.%.%.%.%.%.%.%.%.%.%.%.%.%.%.%.%.%.%.%.%.%.%.%.%.%.%.%.%.%.%.%.%._ i ",
"%.%.. . %.%.%.%.%.%.%.%.%.%.%.%.%.%.%.%.%.%.%.%.%.%.%.%.%.%.%.%.%.%.%.%.%.%.%.%.%.%.%.%.%.%.%.%.%.%.%.%.%.%.%.%.%.%.%.%.%.%.. . ",
"%.%.. . %.%.%.%.. . ( 4 < b . s %.%.%.s . . %.. . f r B , : B %.. . ) 4 < ^ %.. . ( 4 , F H , 5 / %.h $ : M %.%.. . ( 4 < . . . ",
"%.%.. . . . . . . . K ' . 5 0 . ..%.... . . %.. . ^ m . R P . F . . K ` . 5 %.. . D } . . B { . 5 b . E W . S %.. . K ' . 5 . . ",
"%.%.. . %.%.%.%.. . @.%.. . E . n %.n . . . %.. . %.9 . %.@.. 5 . . @.%.. . %.. . %.%.. . %.%.. . < . @.%.. 9 %.. . @.%.. . . . ",
"%.%.. . %.%.%.%.. . %.%.. . %.< * X.$ , . . %.. . %.@ . %.%.. + . . %.%.. . %.. . %.%.. . %.%.. . + . . . . + %.. . %.%.. . . . ",
"%.%.. . %.%.%.%.. . %.%.. . %.F . y . C . . %.. . %.5 . %.@.. 6 . . %.%.. . %.. . %.%.. . %.%.. . < . %.%.%.%.%.. . %.%.. . . . ",
"%.%.. . %.%.%.%.. . %.%.. . %.+.# . + o.. . %.. . %.S . R P . K . . %.%.. . %.. . %.%.. . %.%.. . z . P [ . q %.. . %.%.. . : . ",
"%.%.. . . . . . . . %.%.. . %.%.x . h %.. . %.. . %.%.N , : C %.. . %.%.. . %.. . %.%.. . %.%.. . %.c : # p ..%.. . %.%.. . ! $ ",
"%.%.%.%.%.%.%.%.%.%.%.%.%.%.%.%.%.%.%.%.%.%.%.%.%.%.%.%.%.%.%.%.%.%.%.%.%.%.%.%.%.%.%.%.%.%.%.%.%.%.%.%.%.%.%.%.%.%.%.%.%.%.%.%.",
"%.%.%.%.%.%.%.%.%.%.%.%.%.%.%.%.%.%.%.%.%.%.%.%.%.%.%.%.%.%.%.%.%.%.%.%.%.%.%.%.%.%.%.%.%.%.%.%.%.%.%.%.%.%.%.%.%.%.%.%.%.%.%.%.",
"%.%.%.%.%.%.%.%.%.%.%.%.%.%.%.%.%.%.%.%.%.%.%.%.%.%.%.%.%.%.%.%.%.%.%.%.%.%.%.%.%.%.%.%.%.%.%.%.%.%.%.%.%.%.%.%.%.%.%.%.%.%.%.%."
};
