/* XPM */
static char *toolbar_queue[] = {
/* columns rows colors chars-per-pixel */
"64 64 257 2",
"   c #000000",
".  c #010609",
"X  c #04080B",
"o  c #070C10",
"O  c #090E13",
"+  c #0B1015",
"@  c #0D1318",
"#  c #10161C",
"$  c #12181F",
"%  c #151C24",
"&  c #181F27",
"*  c #1B222A",
"=  c #1F2731",
"-  c #222B35",
";  c #252E39",
":  c #29323E",
">  c #2B3542",
",  c #2F3846",
"<  c #005F23",
"1  c #0E670C",
"2  c #076715",
"3  c #007D0C",
"4  c #047014",
"5  c #007E21",
"6  c #0F7F23",
"7  c #257927",
"8  c #394555",
"9  c #3C4758",
"0  c #3C4859",
"q  c #364150",
"w  c #404C5E",
"e  c #424E60",
"r  c #48566A",
"t  c #455164",
"y  c #4E5B70",
"u  c #54637A",
"i  c #58677E",
"p  c #627E6F",
"a  c #677E77",
"s  c #1E4E9B",
"d  c #044DA7",
"f  c #1E58A5",
"g  c #195FB9",
"h  c #1C4BA6",
"j  c #2D5A9C",
"k  c #235AAE",
"l  c #255AB5",
"z  c #335DA6",
"x  c #38609D",
"c  c #2E63AB",
"v  c #3761A4",
"b  c #396BB4",
"n  c #2965C7",
"m  c #2770CB",
"M  c #2E72D4",
"N  c #3871C7",
"B  c #457284",
"V  c #5D6D86",
"C  c #5F6F88",
"Z  c #506C9F",
"A  c #4773B7",
"S  c #5377A9",
"D  c #62728D",
"F  c #657691",
"G  c #677893",
"H  c #687A95",
"J  c #747886",
"K  c #607BAF",
"L  c #4177CD",
"P  c #457AD1",
"I  c #427FE3",
"U  c #008A24",
"Y  c #008B2D",
"T  c #009931",
"R  c #1F992C",
"E  c #159831",
"W  c #00A63D",
"Q  c #0CA139",
"!  c #009045",
"~  c #0D9B6E",
"^  c #00AB5C",
"/  c #00B549",
"(  c #00B240",
")  c #13B147",
"_  c #00AC69",
"`  c #219941",
"'  c #378F7E",
"]  c #22BD58",
"[  c #3BA345",
"{  c #39A75C",
"}  c #36B963",
"|  c #37E100",
" . c #32E009",
".. c #2CC162",
"X. c #3CC46C",
"o. c #498169",
"O. c #5AAA54",
"+. c #609F4C",
"@. c #7F805A",
"#. c #718068",
"$. c #70BE43",
"%. c #7AB957",
"&. c #40E700",
"*. c #49E415",
"=. c #5DE334",
"-. c #50E62A",
";. c #69CA3B",
":. c #66EB3D",
">. c #43C877",
",. c #6CE945",
"<. c #188881",
"1. c #3889D7",
"2. c #3480E9",
"3. c #358CF4",
"4. c #3489FF",
"5. c #3E8FFF",
"6. c #3F83FC",
"7. c #6E809C",
"8. c #798088",
"9. c #7284A1",
"0. c #778AAB",
"q. c #798CAC",
"w. c #768DB9",
"e. c #7E92B3",
"r. c #4480D7",
"t. c #4298C5",
"y. c #4789FB",
"u. c #4285F9",
"i. c #4494FE",
"p. c #4F90FC",
"a. c #518CEA",
"s. c #559CFF",
"d. c #5593F5",
"f. c #56A3D1",
"g. c #6586C0",
"h. c #638CC6",
"j. c #6F98D2",
"k. c #7D99DC",
"l. c #668EE2",
"z. c #6095E1",
"x. c #6B94E2",
"c. c #619EFD",
"v. c #729EE5",
"b. c #64A1D8",
"n. c #72A8DA",
"m. c #6DA0EC",
"M. c #69A8FD",
"N. c #78AAEE",
"B. c #7EB0FE",
"V. c #51CD82",
"C. c #63C282",
"Z. c #74D49C",
"A. c #7FD89D",
"S. c #986E30",
"D. c #9A753A",
"F. c #846A3B",
"G. c #A76805",
"H. c #B5781A",
"J. c #A86E18",
"K. c #A57A35",
"L. c #8C734E",
"P. c #967E5E",
"I. c #877D71",
"U. c #BC852E",
"Y. c #9D835E",
"T. c #808362",
"R. c #9A8E7C",
"E. c #97866A",
"W. c #81A46F",
"Q. c #89A974",
"!. c #96B26A",
"~. c #AD905E",
"^. c #BF8F4A",
"/. c #B8945B",
"(. c #AC885A",
"). c #A88D67",
"_. c #A78C67",
"`. c #A7A65F",
"'. c #97CD71",
"]. c #97F078",
"[. c #C4841F",
"{. c #D2912D",
"}. c #DB9835",
"|. c #D38C2A",
" X c #E29E3B",
".X c #EEA93E",
"XX c #FFAC2C",
"oX c #FDAF3F",
"OX c #FFB038",
"+X c #D7A350",
"@X c #D2B27F",
"#X c #CBA770",
"$X c #E9A541",
"%X c #ECAE50",
"&X c #F2AC41",
"*X c #FCB441",
"=X c #FCB54A",
"-X c #F7B14E",
";X c #FFBB56",
":X c #FDBE5E",
">X c #FDC671",
",X c #858D94",
"<X c #8D9081",
"1X c #909E92",
"2X c #969F9A",
"3X c #849897",
"4X c #808FAE",
"5X c #8395B6",
"6X c #8396BB",
"7X c #8499BC",
"8X c #8594A7",
"9X c #92A398",
"0X c #8AA584",
"qX c #98A0A8",
"wX c #97ABB0",
"eX c #97A4B5",
"rX c #ABA585",
"tX c #B4AA8E",
"yX c #B9B197",
"uX c #B5B1A3",
"iX c #A6A8A5",
"pX c #899EC1",
"aX c #8BA0C4",
"sX c #8BB1DF",
"dX c #94ACD6",
"fX c #81A9E4",
"gX c #86B6FE",
"hX c #92B5E9",
"jX c #91BEFF",
"kX c #9BBDF4",
"lX c #89C986",
"zX c #88DBA8",
"xX c #9EE485",
"cX c #9BF086",
"vX c #98E5A5",
"bX c #98C0FC",
"nX c #9EC5FB",
"mX c #A4C5FD",
"MX c #A8C5F7",
"NX c #AACFFF",
"BX c #B0CDFF",
"VX c #B2D3FE",
"CX c #CCBA83",
"ZX c #D9C091",
"AX c #E9C585",
"SX c #E6C591",
"DX c #FCCD83",
"FX c #F0CF9B",
"GX c #FDD08B",
"HX c #FED394",
"JX c #F9D49A",
"KX c #F0D498",
"LX c #FDDAA2",
"PX c #FBDBAC",
"IX c #FBE3B6",
"UX c #FBE7C5",
"YX c None",
/* pixels */
"YXYXYXYXYXYXYXYXYXYXYXYXYXYXYXYXYXYXYXYXYXYXYXYXYXYXYXYXYXYXYXYXYXYXYXYXYXYXYXYXYXYXYXYXYXYXYXYXYXYXYXYXYXYXYXYXYXYXYXYXYXYXYXYX",
"YXYXYXYXYXYXYXYXYXYXYXYXYXYXYXYXYXYXYXYXYXYXYXYXYXYXYXYXYXYXYXYXYXYXYXYXYXYXYXYXYXYXYXYXYXYXYXYXYXYXYXYXYXYXYXYXYXYXYXYXYXYXYXYX",
"YXYXYXYXYXYXYXYXYXYXYXYXYXYXYXYXYXYXYXYXYXYXYXYXYXYXYXYXYXYXYXYXYXYXYXYXYXYXYXYXYXYXYXYXYXYXYXYXYXYXYXYXYXYXYXYXYXYXYXYXYXYXYXYX",
"YXYXYXYXYXYXYXYXYXYXYXYXYXYXYXYXYXYXYXYXYXYXYXYXYXYXYXYXYXYXYXYXYXYXYXYXYXYXYXYXYXYXYXYXYXYXYXYXYXYXYXYXYXYXYXYXYXYXYXYXYXYXYXYX",
"YXYXYXYXYXYXYXYXYXYXYXYXYXYXYXYXYXYXYXYXYXYXYXYXYXYXYXYXYXYXYXYXYXYXYXYXYXYXYXYXYXYXYXYXYXYXYXYXYXYXYXYXYXYXYXYXYXYXYXYXYXYXYXYX",
"YXYXYXYXYXYXYXYXYXYXYXYXYXYXYXYXYXYXYXYXYXYXYXYXYXYXYXYXYXYXYXYXYXYXYXYXYXYXYXYXYXYXYXYXYXYXYXYXYXYXYXYXYXYXYXYXYXYXYXYXYXYXYXYX",
"YXYXYXYXYXYXYXYXYXYXYXYXYXYXYXYXYXYXYXYXYXYXYXYXYXYXYXYXYXYXYXYXYXYXYXYXYXYXYXYXYXYXYXYXYXYXYXYXYXYXYXYXYXYXYXYXYXYXYXYXYXYXYXYX",
"YXYXYXYXYXYXYXYXYXYXYXYXYXYXYXYXYXYXYXYXYXYXYXYXYXYXYXYXYXYXYXYXYXYXYXYXYXYXYXYXYXYXYXYXYXYXYXYXYXYXYXYXYXYXYXYXYXYXYXYXYXYXYXYX",
"YXYXYXYXYXYXYXYXYXYXYXYXYXYXYXYXYXYXYXYXYXYXYXYXYXYXYXYXYXYXYXYXYXYXYXYXYXYXYXYXYXYXYXYXYXYXYXYXYXYXYXYXYXYXYXYXYXYXYXYXYXYXYXYX",
"YXYXYXYXYXYXYXYXYXYXYXYXYXYXYXYXYXYXYXYXYXYXYXYXYXYXYXYXYXYXYXYXYXYXYXYXYXYXYXYXYXYXYXYXYXYXYXYXYXYXYXYXYXYXYXYXYXYXYXYXYXYXYXYX",
"YXYXYXYXYXYXYXYXYXYXYXYXYXYXYXYXYXYXYXYXYXYXYXYXYXYXYXYXYXwXQ.Q.Q.W.W.Q.wXYXYXYXYXYXYXYXYXYXYXYXYXYXYXYXYXYXYXYXYXYXYXYXYXYXYXYX",
"YXYXYXYXYXYXYXYXYXYXYXYXYXYXYXYXYXYXYXYXYXYXYXYXYXYXYX9X%.;.:.-.-.-.=.=.;.%.9XYXYXYXYXYXYXYXYXYXYXYXYXYXYXYXYXYXYXYXYXYXYXYXYXYX",
"YXYXYXYXYXYXYXYXYXYXYXYXYXYXYXYXYXYXYXYXYXYXYXYXYXYXqX$.*.&.| | | |  .| | *.;.<XYXYXYXYXYXYXYXYXYXYXYXYXYXYXYXYXYXYXYXYXYXYXYXYX",
"YXYXYXYXYXYXYXYXYXYXYXYXYXYXYXYXYXYXYXYXYXYXYXYXYXYX2X'.|  .| | | | | | | | xX#.YXYXYXYXYXYXYXYXYXYXYXYXYXYXYXYXYXYXYXYXYXYXYXYX",
"YXYXYXYXYXYXYXYXYXYXYXYXYXYXYXYXYXYXYXYXYXYXYXYXYXYX1XO.vXcX,.*.| | *.,.].lX7 @.YXYXYXYXYXYXYXYXYXYXYXYXYXYXYXYXYXYXYXYXYXYXYXYX",
"YXYXYXYXYXYXYXYXYXYXYXYXYXYXYXYXYXYXYXYXYXYXYXYXYXYX1XR X.A.zXZ.Z.Z.C.{ U 4 1 L.YXYXYXYXYXYXYXYXYXYXYXYXYXYXYXYXYXYXYXYXYXYXYXYX",
"YXYXYXYXYXYXYXYXYXYXYXYXYXYXYXYXYXYXYXYXYXYXYXYXYXYX9XR X.Z.>.W / Q T U 5 4 1 p YXYXYXYXYXYXYXYXYXYXYXYXYXYXYXYXYXYXYXYXYXYXYXYX",
"YXYXYXYXYXYXYXYXYXYXYXYXYXYXYXYXYXYXYXYXYXYXYXYXYXYX3XE ] V.X./ ) W T Y 5 4 2 a YXYXYXYXYXYXYXYXYXYXYXYXYXYXYXYXYXYXYXYXYXYXYXYX",
"YXYXYXYXYXYXYXYXYXYXYXYXYXYXYXYXYXYXYXYXeXiXuXyXtXyXrX+.[ } ../ ) W T Y 5 4 2 a YXYXYXYXYXYXYXYXYXYXYXYXYXYXYXYXYXYXYXYXYXYXYXYX",
"YXYXYXYXYXYXYXYXYXYXYXYXYXYXYXYXYXYXeXtXCXAXJXJXJXJXHXAXCX!.[ / ) W T Y 5 4 2 p YXYXYXYXYXYXYXYXYXYXYXYXYXYXYXYXYXYXYXYXYXYXYXYX",
"YXYXYXYXYXYXYXYXYXYXYXYXYXYXYXYXYXYXR.KXHXHXHXHXHXHXHXHXHXJX`.( / W T U 3 1 < B YXYXYXYXYXYXYXYXYXYXYXYXYXYXYXYXYXYXYXYXYXYXYXYX",
"YXYXYXYXYXYXYXYXYXYXYXYXYXYXYXYXYXYX@XIXHXHXHXHXHXHXHXHXHXLXCXE / W ! <.t.n.sXhXhXN.v.x.YXYXYXYXYXYXYXYXYXYXYXYXYXYXYXYXYXYXYXYX",
"YXYXYXYXYXYXYXYXYXYXYXYXYXYXYXYXYXYX/.LXUXPXHXHXHXHXHXJXUX@XK.E / ~ b.kXbXbXbXbXbXbXbXMXN.z.YXYXYXYXYXYXYXYXYXYXYXYXYXYXYXYXYXYX",
"YXYXYXYXYXYXYXYXYXYXYXYXYXYXYXYXYXYX^.*XHXIXIXPXPXFXSX#XH.G.K.E ^ t.mXjXjXjXbXbXbXbXjXjXbXfXk.YXYXYXYXYXYXYXYXYXYXYXYXYXYXYXYXYX",
"YXYXYXYXYXYXYXYXYXYXYXYXYXYXYXYXYXYX^.*XDXJX*X*X.X X|.[.H.G.K.` _ f.NXmXbXbXbXbXjXjXbXmXnXdXl.YXYXYXYXYXYXYXYXYXYXYXYXYXYXYXYXYX",
"YXYXYXYXYXYXYXYXYXYXYXYXYXYXYXYXYXYX/.OX>XGX=X=X&X X|.[.H.G.D.o.' 1.gXVXVXNXNXNXMXmXkXhXh.b x.YXYXYXYXYXYXYXYXYXYXYXYXYXYXYXYXYX",
"YXYXYXYXYXYXYXYXYXYXYXYXYXYXYXYXYXYX~.OX:X>X=X=X.X X{.[.H.G.K.0.w.I y.bXVXgXB.B.m.z.r.g d b v.YXYXYXYXYXYXYXYXYXYXYXYXYXYXYXYXYX",
"YXYXYXYXYXYXYXYXYXYXYXYXYXYXYXYXYXYX~.OX=X:X=X=XoX X{.[.H.G.S.5XYXd.5.B.bXi.p.u.2.M n l d b j.YXYXYXYXYXYXYXYXYXYXYXYXYXYXYXYXYX",
"YXYXYXYXYXYXYXYXYXYXYXYXYXYXYXYXYXYX~.XXoX=X=X=X&X}.{.[.H.G.S.5XYXM y.M.B.i.i.3.I M n l d c g.YXYXYXYXYXYXYXYXYXYXYXYXYXYXYXYXYX",
"YXYXYXYXYXYXYXYXYXYXYXYXYXYXYXYXYXYX~.XXoX*X=X=X&X.X{.[.H.G.S.4XYXP 4.c.M.i.i.3.I M n l d z g.YXYXYXYXYXYXYXYXYXYXYXYXYXYXYXYXYX",
"YXYXYXYXYXYXYXYXYXYXYXYXYXYXYXYXYXYX(.XXoX*X=X=X&X X{.[.H.G.S.9.YXP 4.p.s.p.i.3.I M n l d z g.YXYXYXYXYXYXYXYXYXYXYXYXYXYXYXYXYX",
"YXYXYXYXYXYXYXYXYXYXYXYXYXYXYXYXYXYXE.oXOX*X=X=X&X}.{.[.H.J.F.e.YXP u.y.i.p.i.3.r.M n l d z w.YXYXYXYXYXYXYXYXYXYXYXYXYXYXYXYXYX",
"YXYXYXYXYXYXYXYXYXYXYXYXYXYXYXYXYXYX8X).+X%X;X;X-X$X}.U.K.L.J YXYXP u.4.5.p.y.3.I M n l d f K YXYXYXYXYXYXYXYXYXYXYXYXYXYXYXYXYX",
"YXYXYXYXYXYXYXYXYXYXYXYXYXYXYXYXYXYXYX6X,XR._._._.Y.P.I.J 4XYXYXYXN u.y.5.p.i.3.a.M n l h f K YXYXYXYXYXYXYXYXYXYXYXYXYXYXYXYXYX",
"YXYXYXYXYXYXYXYXYXYXYXYXYXYXYXYXYXYXYXYXYXpX6X5Xq.4X5XpXYXYXYXYXYXA 2.i.5.p.i.3.2.M n g k s w.YXYXYXYXYXYXYXYXYXYXYXYXYXYXYXYXYX",
"YXYXYXYXYXYXYXYXYXYXYXYXYXYXYXYXYXYXYXYXYXYXYXYXYXYXYXYXYXYXYXYXYXYXA m a.M.s.p.a.P N k j w.YXYXYXYXYXYXYXYXYXYXYXYXYXYXYXYXYXYX",
"YXYXYXYXYXYXYXYXYXYXYXYXYXYXYXYXYXYXYXYXYXYXYXYXYXYXYXYXYXYXYXYXYXYXYX6XS x v c v x Z 0.YXYXYXYXYXYXYXYXYXYXYXYXYXYXYXYXYXYXYXYX",
"YXYXYXYXYXYXYXYXYXYXYXYXYXYXYXYXYXYXYXYXYXYXYXYXYXYXYXYXYXYXYXYXYXYXYXYXYXYXYXYXYXYXYXYXYXYXYXYXYXYXYXYXYXYXYXYXYXYXYXYXYXYXYXYX",
"YXYXYXYXYXYXYXYXYXYXYXYXYXYXYXYXYXYXYXYXYXYXYXYXYXYXYXYXYXYXYXYXYXYXYXYXYXYXYXYXYXYXYXYXYXYXYXYXYXYXYXYXYXYXYXYXYXYXYXYXYXYXYXYX",
"YXYXYXYXYXYXYXYXYXYXYXYXYXYXYXYXYXYXYXYXYXYXYXYXYXYXYXYXYXYXYXYXYXYXYXYXYXYXYXYXYXYXYXYXYXYXYXYXYXYXYXYXYXYXYXYXYXYXYXYXYXYXYXYX",
"YXYXYXYXYXYXYXYXYXYXYXYXYXYXYXYXYXYXYXYXYXYXYXYXYXYXYXYXYXYXYXYXYXYXYXYXYXYXYXYXYXYXYXYXYXYXYXYXYXYXYXYXYXYXYXYXYXYXYXYXYXYXYXYX",
"YXYXYXYXYXYXYXYXYXYXYXaXw # X # w YXYXYXYXYXYXYXYXYXYXYXYXYXYXYXYXYXYXYXYXYXYXYXYXYXYXYXYXYXYXYXYXYXYXYXYXYXYXYXYXYXYXYXYXYXYXYX",
"YXYXYXYXYXYXYXYXYXYXYX& .   .   . * YXYXYXYXYXYXYXYXYXYXYXYXYXYXYXYXYXYXYXYXYXYXYXYXYXYXYXYXYXYXYXYXYXYXYXYXYXYXYXYXYXYXYXYXYXYX",
"YXYXYXYXYXYXYXYXYXYXr . % 0.YX0.&   y YXYX  . YXYXYX.   YXYXYXD % . * H YXYXYX  . YXYXYX  . YXYXYXD % . * H YXYXYXYXYXYXYXYXYXYX",
"YXYXYXYXYXYXYXYXYXYX&   9.YXYXYX9.  * YXYX  . YXYXYX. . YXYXG   .   . . 9.YXYX.   YXYXYX.   YXYXG   .   . . 9.YXYXYXYXYXYXYXYXYX",
"YXYXYXYXYXYXYXYXYXYXX . YXYXYXYXYX. O YXYX. . YXYXYX  . YXYX- . D YXG . , YXYX. . YXYXYX. . YXYX- . D YXH   , YXYXYXYXYXYXYXYXYX",
"YXYXYXYXYXYXYXYXYXYX.   YXYXYXYXYX. . YXYX    YXYXYX.   YXYXX . . .     @ YXYX  . YXYXYX    YXYXX . . . . . @ YXYXYXYXYXYXYXYXYX",
"YXYXYXYXYXYXYXYXYXYX& . 9.YX, i u . $ YXYX. . YXYXpX. . YXYXX   .   . . . YXYX.   YXYXpX. . YXYX.   .     . . YXYXYXYXYXYXYXYXYX",
"YXYXYXYXYXYXYXYXYXYXt . & q.V .   . 8 YXYXX . D YX9   . YXYX* . D YXYXYXYXYXYXX . G YX9 .   YXYX* . D YXYXYXYXYXYXYXYXYXYXYXYXYX",
"YXYXYXYXYXYXYXYXYXYXYX# .     . . O 7XYXYX-   . . .   . YXYXD . .   . . > YXYX-     . . . . YXYXD .   . . . > YXYXYXYXYXYXYXYXYX",
"YXYXYXYXYXYXYXYXYXYXYXpX9 @ . = w # 7.YXYXe.= . % C .   YXYXYXV & . + 9 YXYXYXe.= . % V   . YXYXYXV & . + 8 YXYXYXYXYXYXYXYXYXYX",
"YXYXYXYXYXYXYXYXYXYXYXYXYXYXYXYXYXu 8 YXYXYXYXYXYXYXYXYXYXYXYXYXYXYXYXYXYXYXYXYXYXYXYXYXYXYXYXYXYXYXYXYXYXYXYXYXYXYXYXYXYXYXYXYX",
"YXYXYXYXYXYXYXYXpX9 + . * D YXYXYXYXYXYXYXYXYXYXYXYXYXYXYXYXYXYXYXYXYX9.- YXYXYXYXYXYXYXYXYXYXYXYXYXYXYXYXYXYX. . YXYXYXYXYXYXYX",
"YXYXYXYXYXYXYXYX*   . . . . D YXYXYXYXYXYXYXYXYXYXYXYXYXYXYXYXYXYXYXYX. . YXYXYXYXYXYXYXYXYXYXYXYXYXYXYXYXYXYX.   YXYXYXYXYXYXYX",
"YXYXYXYXYXYXYXr . = 6XYX: . & YXYXYXG & . & H YXYXYX. . D % . = e.YX.     . . YX  . 9.+ ; YXYXD & . & G YXYXYX. . YXYXYXYXYXYXYX",
"YXYXYXYXYXYXYX* . q.YXYX5X; 9.YXYXH   .   . . H YXYX  . . . .   * YX  . . .   YX.   . . > YXH . .   . . H YXYX. . YXYXYXYXYXYXYX",
"YXYXYXYXYXYXYXX   YXYXYXYXYXYXYXYX; . 8 YX8 . - YXYX. . : YXD . X YXYX.   YXYXYX.   9 YX7XYX; . 8 YX8 . - YXYX.   YXYXYXYXYXYXYX",
"YXYXYXYXYXYXYX. . YXYXYXYXYXYXYXYXX . YXYXYX. X YXYX    5XYXYX  . YXYX. . YXYXYX.   5XYXYXYXX   YXYXYX  X YXYX  . YXYXYXYXYXYXYX",
"YXYXYXYXYXYXYX%   q.YXYX5X- 9.YXYXX . YXYXe.. X YXYX. . YXYXYX. . YXYX  . YXYXYX. . YXYXYXYXX . YXYXe.. X YXYX. . YXYXYXYXYXYXYX",
"YXYXYXYXYXYXYXt . - 7XpX: . * YXYX- . 9 YX8   ; YXYX  . YXYXYX.   YXYX. . aXYXYX  . YXYXYXYX; . 9 YX8 . ; YXYX.   YXYXYXYXYXYXYX",
"YXYXYXYXYXYXYXYX# .   . . . G YXYXH .     . . 9.YXYX.   YXYXYX  . YXYX@   . , YX. . YXYXYXYXH . .   . . 9.YXYX  . YXYXYXYXYXYXYX",
"YXYXYXYXYXYXYXYXpXq + . * G YXYXYXYXD * . & G YXYXYX. . YXYXYX.   YXYXG + X ; YX  . YXYXYXYXYXD * . & G YXYXYX.   YXYXYXYXYXYXYX",
"YXYXYXYXYXYXYXYXYXYXYXYXYXYXYXYXYXYXYXYXYXYXYXYXYXYXYXYXYXYXYXYXYXYXYXYXYXYXYXYXYXYXYXYXYXYXYXYXYXYXYXYXYXYXYXYXYXYXYXYXYXYXYXYX",
"YXYXYXYXYXYXYXYXYXYXYXYXYXYXYXYXYXYXYXYXYXYXYXYXYXYXYXYXYXYXYXYXYXYXYXYXYXYXYXYXYXYXYXYXYXYXYXYXYXYXYXYXYXYXYXYXYXYXYXYXYXYXYXYX"
};
